<svg width="182" height="139" viewBox="0 0 182 139" fill="none" xmlns="http://www.w3.org/2000/svg">
<path d="M154.308 11.7395C154.257 11.6413 154.173 11.5643 154.071 11.5223C142.271 6.0953 129.819 2.22541 117.025 0.00949226C116.909 -0.0121679 116.789 0.003458 116.682 0.0541476C116.575 0.104837 116.487 0.18801 116.43 0.291837C114.735 3.3768 113.195 6.54558 111.818 9.78606C98.0279 7.68766 84.0005 7.68766 70.2101 9.78606C68.824 6.53735 67.26 3.36779 65.5255 0.291837C65.466 0.190266 65.3773 0.109009 65.2711 0.0586488C65.1649 0.00828844 65.046 -0.00884099 64.9299 0.00949226C52.1353 2.22076 39.6821 6.09094 27.8835 11.5226C27.7825 11.5656 27.6973 11.6388 27.6396 11.7324C4.04483 47.0528 -2.41867 81.5047 0.752103 115.53C0.761023 115.613 0.786581 115.694 0.827259 115.767C0.867937 115.841 0.922904 115.905 0.988889 115.957C14.7279 126.154 30.0952 133.937 46.4349 138.975C46.5499 139.01 46.6728 139.008 46.787 138.971C46.9011 138.933 47.0011 138.862 47.0734 138.765C50.5828 133.979 53.6925 128.91 56.3706 123.611C56.4074 123.539 56.4284 123.459 56.4323 123.377C56.4361 123.296 56.4227 123.215 56.3929 123.139C56.3631 123.063 56.3176 122.994 56.2594 122.937C56.2012 122.88 56.1316 122.836 56.0552 122.808C51.1516 120.928 46.4043 118.66 41.8579 116.028C41.7754 115.979 41.706 115.911 41.656 115.829C41.606 115.747 41.5768 115.654 41.5712 115.558C41.5655 115.462 41.5835 115.367 41.6235 115.279C41.6636 115.192 41.7244 115.116 41.8007 115.058C42.7546 114.342 43.7092 113.596 44.6201 112.844C44.7011 112.777 44.799 112.734 44.9029 112.72C45.0068 112.706 45.1126 112.721 45.2082 112.764C74.9935 126.39 107.24 126.39 136.673 112.764C136.769 112.719 136.876 112.701 136.981 112.714C137.086 112.727 137.186 112.769 137.268 112.837C138.18 113.589 139.134 114.342 140.095 115.058C140.172 115.116 140.233 115.191 140.274 115.278C140.314 115.365 140.333 115.461 140.328 115.556C140.323 115.652 140.295 115.745 140.245 115.828C140.196 115.91 140.127 115.979 140.045 116.028C135.509 118.682 130.757 120.948 125.841 122.801C125.764 122.83 125.695 122.875 125.637 122.933C125.579 122.991 125.534 123.06 125.505 123.137C125.476 123.213 125.463 123.295 125.468 123.377C125.472 123.459 125.494 123.538 125.531 123.611C128.254 128.881 131.359 133.943 134.821 138.757C134.892 138.856 134.991 138.93 135.106 138.969C135.22 139.008 135.344 139.01 135.46 138.974C151.829 133.953 167.223 126.169 180.979 115.957C181.046 115.908 181.102 115.845 181.143 115.773C181.184 115.7 181.209 115.62 181.216 115.537C185.012 76.2003 174.861 42.0307 154.308 11.7395ZM60.8188 94.8121C51.8513 94.8121 44.4623 86.563 44.4623 76.4321C44.4623 66.3012 51.7079 58.0515 60.8188 58.0515C70.0009 58.0515 77.3184 66.3729 77.175 76.4315C77.175 86.563 69.9291 94.8121 60.8188 94.8121ZM121.294 94.8121C112.327 94.8121 104.938 86.563 104.938 76.4321C104.938 66.3012 112.183 58.0515 121.294 58.0515C130.476 58.0515 137.794 66.3729 137.65 76.4315C137.65 86.563 130.476 94.8121 121.294 94.8121Z" fill="white"/>
</svg>
