<svg width="379" height="411" viewBox="0 0 379 411" fill="none" xmlns="http://www.w3.org/2000/svg">
<path d="M185.169 282.746L277.75 128.085L94.1089 127.184L185.169 282.746Z" fill="#0E0D14"/>
<path d="M269.146 152.676L188.66 282.744L106.824 154.061L110.843 135.319L29.271 130.992L83.1348 180.125L60.0356 174.776L119.946 236.592L187.85 358.772L257.378 239.011L317.891 177.786L294.741 182.908L349.084 134.306L267.473 137.832L269.146 152.676Z" fill="white"/>
<path fill-rule="evenodd" clip-rule="evenodd" d="M106.824 154.061L188.66 282.744L269.146 152.676L267.473 137.832L349.084 134.306L294.741 182.908L317.891 177.786L257.378 239.011L187.85 358.772L119.946 236.592L60.0356 174.776L83.1348 180.125L29.271 130.992L110.843 135.319L106.824 154.061ZM46.3386 160.803L0.428159 118.925L123.718 125.465L118.017 152.052L188.538 262.944L258.282 150.235L255.755 127.806L378.044 122.522L331.725 163.948L350.46 159.802L265.804 245.454L187.651 380.074L111.423 242.918L27.6448 156.474L46.3386 160.803Z" fill="#0E0D14"/>
<path d="M244.769 118.292C248.094 125.491 249.271 138.091 249.271 138.091C246.826 136.546 241.022 132.072 241.022 132.072C241.022 132.072 235.821 129.747 233.677 129.276C231.533 128.806 221.239 133.355 221.239 133.355L216.18 133.33L207.87 139.728L213.831 143.437C213.831 143.437 210.426 148.011 208.733 151.23C206.591 155.305 203.848 168.045 204.452 169.888C205.056 171.73 205.169 173.959 206.26 176.335C207.444 178.917 208.998 180.641 210.37 182.335C210.37 182.335 207.577 189.067 206.174 193.812C204.771 198.558 201.982 204.646 201.976 205.75C201.976 205.75 201.434 210.456 201.899 221.403C202.521 236.028 205.944 240.698 205.944 240.698L202.686 248.501C202.686 248.501 203.29 252.508 204.409 272.426C205.824 297.64 210.077 335.799 210.077 335.799L187.759 384.902L165.925 335.582C165.925 335.582 170.552 297.467 172.214 272.268C173.528 252.362 174.171 248.361 174.171 248.361L170.99 240.527C170.99 240.527 174.459 235.89 175.224 221.272C175.797 210.331 175.301 205.619 175.301 205.619C175.306 204.515 172.577 198.4 171.22 193.641C169.864 188.882 167.138 182.123 167.138 182.123C168.526 180.443 170.096 178.733 171.306 176.164C172.42 173.798 172.555 171.571 173.177 169.734C173.8 167.897 171.283 155.132 169.18 151.036C167.519 147.801 164.16 143.193 164.16 143.193L170.157 139.543L161.91 133.064L156.851 133.039C156.851 133.039 146.602 128.389 144.453 128.839C142.305 129.288 137.081 131.562 137.081 131.562C137.081 131.562 131.234 135.979 128.773 137.5C128.773 137.5 130.074 124.912 133.469 117.746C136.393 111.576 143.657 103.539 143.657 103.539C143.657 103.539 148.149 111.304 152.339 115.079C158.668 120.781 172.071 124.375 172.071 124.375L172.08 122.535L177.155 119.34L177.175 115.201L179.944 113.375C179.944 113.375 181.768 106.15 181.842 101.426C181.921 96.3467 180.065 88.5395 180.065 88.5395L180.996 86.2444L181.012 72.7276L178.724 70.4168L178.76 63.0581L175.099 59.3607L189.516 26.7765L203.613 59.5006L199.916 63.1619L199.88 70.5205L197.569 72.8088L197.554 86.3256L198.462 88.6297C198.462 88.6297 196.53 96.4183 196.559 101.498C196.587 106.223 198.34 113.465 198.34 113.465L201.091 115.318L201.07 119.458L206.114 122.702L206.105 124.542C206.105 124.542 219.542 121.079 225.926 115.44C230.153 111.706 234.721 103.985 234.721 103.985C234.721 103.985 241.907 112.094 244.769 118.292Z" fill="white"/>
<path fill-rule="evenodd" clip-rule="evenodd" d="M259.748 137.112L261.739 158.416L243.651 146.987C242.023 145.958 239.633 144.202 237.934 142.933C237.049 142.272 236.241 141.661 235.645 141.207C235.223 141.026 234.715 140.812 234.177 140.593C233.74 140.414 233.306 140.241 232.896 140.084C232.175 140.318 231.318 140.624 230.388 140.977C229.592 141.279 228.81 141.589 228.109 141.875L222.274 149.715L222.274 149.716L222.273 149.717L222.254 149.744C222.235 149.768 222.205 149.809 222.165 149.864C222.083 149.975 221.961 150.143 221.806 150.357C221.496 150.788 221.065 151.394 220.588 152.087C219.568 153.571 218.589 155.096 218.046 156.128C218.057 156.107 217.954 156.309 217.759 156.829C217.576 157.314 217.366 157.936 217.138 158.681C216.681 160.175 216.223 161.942 215.831 163.693C215.436 165.459 215.146 167.044 214.991 168.182C214.98 168.267 214.969 168.346 214.96 168.42C215.015 168.648 215.064 168.858 215.106 169.049C215.178 169.37 215.244 169.687 215.298 169.94C215.355 170.212 215.4 170.426 215.447 170.636C215.629 171.458 215.739 171.763 215.823 171.947C216.262 172.904 216.705 173.448 217.958 174.987C218.136 175.207 218.332 175.447 218.546 175.711L222.489 180.58L220.089 186.366L220.067 186.42C220.049 186.463 220.022 186.529 219.986 186.617C219.914 186.794 219.807 187.056 219.673 187.388C219.406 188.053 219.034 188.989 218.622 190.064C217.772 192.278 216.845 194.834 216.265 196.796C215.434 199.606 214.247 202.668 213.411 204.823L213.362 204.95C212.927 206.073 212.608 206.896 212.387 207.512C212.355 207.987 212.313 208.74 212.281 209.791C212.212 212.062 212.19 215.719 212.412 220.956C212.69 227.504 213.579 231.409 214.201 233.405C214.448 234.199 214.654 234.692 214.762 234.93L217.943 239.27L213.434 250.069C213.488 250.647 213.548 251.326 213.614 252.121C213.915 255.737 214.352 261.818 214.914 271.836C215.609 284.217 217.009 299.883 218.246 312.544C218.863 318.855 219.435 324.384 219.854 328.334C220.063 330.308 220.234 331.887 220.352 332.97C220.411 333.512 220.457 333.929 220.488 334.211L220.534 334.632C220.534 334.632 220.534 334.633 219.848 334.71L220.534 334.633L220.855 337.514L187.633 410.609L155.13 337.191L155.479 334.314L156.517 334.44C155.479 334.314 155.479 334.314 155.479 334.314L155.479 334.313L155.53 333.892C155.564 333.611 155.614 333.194 155.678 332.653C155.807 331.571 155.993 329.994 156.221 328.021C156.678 324.076 157.305 318.553 157.984 312.249C159.345 299.6 160.898 283.949 161.715 271.575C162.375 261.563 162.872 255.486 163.208 251.874C163.282 251.08 163.349 250.402 163.408 249.823L159.006 238.981L162.229 234.673C162.34 234.435 162.55 233.945 162.806 233.152C163.447 231.163 164.374 227.267 164.716 220.722C164.99 215.488 165.004 211.831 164.957 209.559C164.935 208.508 164.901 207.754 164.873 207.278C164.658 206.66 164.347 205.834 163.923 204.707L163.875 204.58C163.061 202.417 161.904 199.343 161.101 196.525C160.54 194.558 159.638 191.993 158.81 189.77C158.408 188.692 158.046 187.752 157.784 187.084C157.654 186.751 157.55 186.488 157.48 186.311C157.459 186.259 157.442 186.215 157.427 186.179L157.401 186.113L157.379 186.059L155.035 180.249L159.026 175.419C159.243 175.157 159.441 174.919 159.622 174.701C160.889 173.174 161.337 172.635 161.786 171.682C161.872 171.499 161.985 171.195 162.175 170.375C162.224 170.165 162.271 169.951 162.331 169.68C162.387 169.428 162.457 169.112 162.532 168.791C162.578 168.591 162.632 168.368 162.693 168.126C162.684 168.045 162.674 167.956 162.663 167.86C162.527 166.72 162.262 165.131 161.897 163.365C161.534 161.613 161.105 159.847 160.673 158.355C160.457 157.612 160.258 156.994 160.084 156.514C159.931 156.088 159.838 155.884 159.82 155.845C159.817 155.837 159.816 155.836 159.82 155.842C159.287 154.805 158.323 153.27 157.318 151.777C156.848 151.079 156.423 150.469 156.116 150.035C155.964 149.819 155.843 149.65 155.763 149.539C155.723 149.483 155.693 149.442 155.675 149.417L155.657 149.392L149.897 141.492C149.199 141.199 148.42 140.881 147.628 140.571C146.701 140.209 145.846 139.894 145.128 139.654C144.717 139.807 144.28 139.975 143.842 140.149C143.302 140.364 142.792 140.573 142.368 140.749C141.768 141.197 140.954 141.801 140.062 142.453C138.351 143.705 135.944 145.438 134.306 146.45L116.106 157.701L118.306 136.418L128.773 137.5C131.234 135.979 137.081 131.562 137.081 131.562C137.081 131.562 138.765 130.829 140.615 130.112C142.022 129.568 143.525 129.033 144.453 128.839C146.602 128.389 156.851 133.039 156.851 133.039L161.91 133.064L170.157 139.543L164.16 143.193C164.16 143.193 164.788 144.055 165.636 145.296C166.749 146.923 168.238 149.201 169.18 151.036C169.345 151.358 169.513 151.732 169.681 152.151C171.658 157.067 173.751 168.041 173.177 169.734C172.943 170.426 172.777 171.174 172.603 171.964C172.314 173.269 172 174.69 171.306 176.164C170.25 178.407 168.919 179.994 167.675 181.479C167.493 181.695 167.314 181.909 167.138 182.123C167.138 182.123 169.864 188.882 171.22 193.641C171.904 196.04 172.937 198.784 173.792 201.056C174.634 203.292 175.304 205.072 175.301 205.619C175.301 205.619 175.797 210.331 175.224 221.272C174.459 235.89 170.99 240.527 170.99 240.527L174.171 248.361C174.171 248.361 173.528 252.362 172.214 272.268C170.552 297.467 165.925 335.582 165.925 335.582L187.759 384.902L210.077 335.799C210.077 335.799 205.824 297.64 204.409 272.426C203.29 252.508 202.686 248.501 202.686 248.501L205.944 240.698C205.944 240.698 202.521 236.028 201.899 221.403C201.434 210.456 201.976 205.75 201.976 205.75C201.979 205.202 202.666 203.429 203.529 201.202C204.407 198.938 205.467 196.205 206.174 193.812C207.577 189.067 210.37 182.335 210.37 182.335C210.195 182.119 210.018 181.903 209.839 181.685C208.609 180.189 207.294 178.588 206.26 176.335C205.58 174.854 205.28 173.431 205.004 172.123C204.837 171.331 204.679 170.582 204.452 169.888C203.895 168.189 206.181 157.235 208.22 152.339C208.394 151.922 208.565 151.55 208.733 151.23C209.694 149.404 211.205 147.141 212.333 145.525C213.193 144.293 213.831 143.437 213.831 143.437L207.87 139.728L216.18 133.33L221.239 133.355C221.239 133.355 231.533 128.806 233.677 129.276C234.604 129.479 236.101 130.029 237.503 130.588C239.345 131.322 241.022 132.072 241.022 132.072C241.022 132.072 246.826 136.546 249.271 138.091L259.748 137.112ZM246.886 124.465C248.612 131.034 249.271 138.091 249.271 138.091C259.748 137.112 259.748 137.111 259.748 137.11L259.748 137.107L259.747 137.101L259.741 137.041L259.727 136.897C259.722 136.844 259.715 136.782 259.708 136.71C259.699 136.622 259.688 136.521 259.676 136.407C259.631 135.994 259.565 135.413 259.476 134.7C259.298 133.279 259.022 131.305 258.631 129.074C257.895 124.872 256.589 118.788 254.322 113.881C252.372 109.659 249.251 105.311 247.013 102.401C245.826 100.857 244.742 99.5317 243.953 98.5895C243.556 98.1165 243.23 97.7352 242.997 97.4655C242.88 97.3305 242.786 97.2231 242.719 97.1459L242.637 97.0528L242.611 97.0236L242.599 97.0096L242.597 97.0079C242.597 97.0072 242.596 97.0064 234.721 103.985L242.596 97.0064L233.018 86.1982L225.67 98.6193L225.668 98.6218L225.667 98.6244L225.666 98.6259L225.665 98.6275L225.646 98.658C225.624 98.6956 225.585 98.7595 225.532 98.847C225.425 99.0222 225.26 99.2902 225.046 99.629C224.615 100.311 224 101.257 223.276 102.297C221.688 104.575 220.08 106.565 218.96 107.554C217.538 108.81 214.852 110.252 211.631 111.58L211.64 109.739L207.769 107.13C207.368 104.915 207.089 102.78 207.081 101.437C207.073 99.9464 207.387 97.5459 207.845 95.0799C208.057 93.9404 208.27 92.9351 208.43 92.2185C208.51 91.8622 208.575 91.5825 208.618 91.3992C208.64 91.3076 208.656 91.2405 208.666 91.2004L208.675 91.1638L208.675 91.1623L208.676 91.1568L209.485 87.899L208.078 84.3318L208.086 77.2026L210.381 74.9306L210.417 67.5719L216.116 61.9281L189.645 0.480114L162.572 61.6654L168.216 67.3649L168.18 74.7236L170.484 77.0509L170.476 84.1854L169.05 87.7007L169.827 90.9684L169.827 90.9702L169.828 90.9717L169.828 90.9732L169.837 91.0099C169.846 91.0502 169.862 91.1174 169.882 91.2092C169.924 91.3929 169.986 91.6732 170.062 92.0303C170.215 92.7484 170.419 93.7557 170.619 94.8973C171.053 97.3677 171.344 99.7712 171.321 101.261C171.3 102.604 171 104.737 170.578 106.948L166.68 109.518L166.671 111.36C163.463 110 160.792 108.532 159.383 107.262C158.273 106.262 156.684 104.257 155.119 101.962C154.404 100.915 153.799 99.9636 153.375 99.2775C153.164 98.9366 153.001 98.667 152.896 98.4907C152.844 98.4027 152.806 98.3384 152.784 98.3006L152.766 98.2699L152.765 98.2683L152.764 98.2668L152.761 98.2617L145.535 85.7691L135.851 96.4828L143.657 103.539C135.851 96.4828 135.85 96.4836 135.85 96.4843L135.848 96.486L135.836 96.4999L135.81 96.5288L135.727 96.6211C135.659 96.6977 135.564 96.8041 135.446 96.9379C135.21 97.2053 134.88 97.5835 134.479 98.0525C133.68 98.987 132.583 100.301 131.381 101.834C129.115 104.721 125.951 109.039 123.96 113.241C121.646 118.126 120.28 124.197 119.502 128.392C119.089 130.619 118.794 132.59 118.602 134.009C118.506 134.721 118.434 135.302 118.385 135.714C118.361 135.92 118.343 136.085 118.329 136.204L118.314 136.347L118.309 136.392L118.307 136.416C118.307 136.417 118.307 136.418 128.773 137.5C128.773 137.5 129.502 130.45 131.292 123.898C131.292 123.898 131.292 123.898 131.292 123.898C131.426 123.405 131.567 122.913 131.715 122.428C132.224 120.75 132.807 119.145 133.469 117.746C134.294 116.006 135.464 114.117 136.719 112.301C139.913 107.681 143.657 103.539 143.657 103.539C143.657 103.539 146.548 108.536 149.854 112.461C150.67 113.43 151.511 114.333 152.339 115.079C154.762 117.262 158.22 119.135 161.567 120.616C163.212 121.344 164.829 121.978 166.284 122.507C169.602 123.713 172.071 124.375 172.071 124.375L172.08 122.535L177.155 119.34L177.175 115.201L179.944 113.375C179.944 113.375 181.768 106.15 181.842 101.426C181.921 96.3467 180.065 88.5395 180.065 88.5395L180.996 86.2444L181.012 72.7276L178.724 70.4168L178.76 63.0581L175.099 59.3607L189.516 26.7765L203.613 59.5006L199.916 63.1619L199.88 70.5205L197.569 72.8088L197.554 86.3256L198.462 88.6297C198.462 88.6297 196.53 96.4183 196.559 101.498C196.587 106.223 198.34 113.465 198.34 113.465L201.091 115.318L201.07 119.458L206.114 122.702L206.105 124.542C206.105 124.542 208.579 123.904 211.909 122.73C213.369 122.216 214.993 121.598 216.645 120.887C220.006 119.438 223.483 117.599 225.926 115.44C226.762 114.702 227.612 113.807 228.437 112.847C231.782 108.954 234.721 103.985 234.721 103.985C234.721 103.985 238.424 108.164 241.573 112.816C242.81 114.643 243.962 116.544 244.769 118.292C245.418 119.697 245.985 121.308 246.478 122.991C246.62 123.478 246.756 123.97 246.886 124.465C246.886 124.465 246.886 124.465 246.886 124.465Z" fill="#0E0D14"/>
</svg>
